<svg xmlns="http://www.w3.org/2000/svg" width="203.574" height="67.396" viewBox="0 0 203.574 67.396">
  <g id="그룹_11" data-name="그룹 11" transform="translate(-1051.107 -2906.131)">
    <g id="그룹_12" data-name="그룹 12">
      <path id="패스_19" data-name="패스 19" d="M1145.662,2933.062a.973.973,0,0,0,1.168,1.276q1.013.072,1.909.071h1.754q2.337,0,4.48-.1t4.482-.246q.935-.069,1.987-.177t1.987-.247c.624-.094,1.181-.177,1.676-.247s.844-.13,1.052-.177a4.8,4.8,0,0,1,2.727.072,2.235,2.235,0,0,1,1.481,1.346q.855,2.411-2.106,3.613a3.643,3.643,0,0,1-1.052.283q-.819.143-1.91.318t-2.337.353q-1.248.177-2.416.247-2.338.142-4.014.247t-2.961.176c-.857.048-1.625.07-2.3.07h-4.4q-1.209,0-3-.072a8.474,8.474,0,0,1-2.766-.5,3.86,3.86,0,0,1-1.6-1.1,3.67,3.67,0,0,1-.74-1.555,8.681,8.681,0,0,1-.194-1.873q0-1.131,0-3.11t0-4.311q0-2.334.041-4.736t.04-4.417q0-2.015,0-3.393t0-1.661a3.645,3.645,0,0,1,1.091-2.332,3.7,3.7,0,0,1,2.806-1.059q2.181.072,5.027.108t5.338.037q2.727,0,5.221-.033t4.52-.176a4.322,4.322,0,0,1,2.65.981,2.526,2.526,0,0,1,1.09,1.887q0,1.961-2.261,2.517-2.962.142-6,.21t-6.39.069q-1.56,0-2.766.034t-3.156-.036q0,.709-.04,1.806t-.04,2.445q-.079,3.33-.08,6.978T1145.662,2933.062Zm37.238,34.16a3.421,3.421,0,0,1-1.092,2.657,4.55,4.55,0,0,1-2.728.884q-3.351.14-5.923.21t-5.026.1q-2.455.035-5.1.034l-6.156,0-4.832,0a9.486,9.486,0,0,1-5.065-1.065q-1.635-1.062-1.635-4.038,0-1.773.041-3.9t.04-4.463l0-7.793a2.226,2.226,0,0,1,1.286-2.266,6.96,6.96,0,0,1,2.845-.566l13.014.075,8.183,0q4.442,0,8.416-.139,4.051-.067,3.9,3.544l0,6.659q0,2.694-.041,5.526T1182.9,2967.222Zm-29.3-1.711,2.572,0q1.4,0,2.766.036t2.649.036h4.988q1.208,0,2.493-.034t2.884-.106q1.6-.071,4.092-.14l0-11.689q0-.85-.934-.851l-13.872-.005q-2.8,0-4.753.034t-3.741.034q-.079,2.835-.08,5.916t0,5.915Q1152.664,2965.512,1153.6,2965.511Zm22.307-56.667a2.348,2.348,0,0,1,1.17-2.089,4.228,4.228,0,0,1,2.728-.6,5.045,5.045,0,0,1,2.22.674,2.014,2.014,0,0,1,1.052,1.878l0,5.03q0,1.912,0,4.5t.077,4.641h3.74q1.324,0,2.65-.034t2.65-.035a3.515,3.515,0,0,1,2.688.887,2.815,2.815,0,0,1,.818,1.948,2.762,2.762,0,0,1-.936,1.983,3.746,3.746,0,0,1-2.572.991q-1.715.071-2.961.035t-2.806-.037h-3.273q-.079,2.763-.08,5.6t0,5.88a2.6,2.6,0,0,1-1.092,2.3,3.961,3.961,0,0,1-2.26.743,3.355,3.355,0,0,1-2.571-.709,2.97,2.97,0,0,1-1.013-2.41l.08-5.951q0-3.115,0-6.411t-.076-6.553q0-1.344-.038-3.046t-.077-3.436q-.039-1.735-.076-3.259T1175.906,2908.844Z" fill="#fff"/>
      <path id="패스_20" data-name="패스 20" d="M1251.253,2936.5a4.182,4.182,0,0,1,2.494.674,2.4,2.4,0,0,1,.934,2.09,2.722,2.722,0,0,1-.585,1.948,4.629,4.629,0,0,1-1.91,1.026,2.865,2.865,0,0,1-.974.142h-2.61l-6.469,0q-4.832,0-9.624-.039t-9.546-.039q-4.833,0-9.468.032t-9.235.1c-.311,0-.637.012-.974.035s-.663.036-.974.035H1200.6a3.319,3.319,0,0,1-2.26-.816,2.723,2.723,0,0,1-.934-2.161,2.335,2.335,0,0,1,.936-1.842,3.994,3.994,0,0,1,2.1-.92,8.606,8.606,0,0,1,1.87-.106q1.17.038,2.1.037h1.013q3.507-.069,7.793-.068l7.793,0,25.327.01h1.52q.818,0,1.6-.07.856,0,1.714-.07Zm-5.622,31.1a2.894,2.894,0,0,1-1.169,2.48,5.522,5.522,0,0,1-2.806.778q-4.833.21-8.027.28t-6.156.14q-2.962.069-6.312.069l-8.339,0q-3.351,0-4.558-1.1a4.329,4.329,0,0,1-1.207-3.366q0-.849,0-1.948t.04-2.8q.038-1.7.04-4.109t0-5.951q0-2.055,1.287-2.585a7.355,7.355,0,0,1,2.844-.531l14.1,0q3.975,0,8.495-.068t8.494-.067a4.37,4.37,0,0,1,2.532.673,2.711,2.711,0,0,1,.9,2.516l0,6.092q0,2.481-.041,5.137T1245.631,2967.6Zm-20.708-60.3a42.481,42.481,0,0,1,7.17.463,20.072,20.072,0,0,1,6.195,1.916,11.911,11.911,0,0,1,4.362,3.756,10.543,10.543,0,0,1,1.751,5.987,9.257,9.257,0,0,1-1.755,6.127,11.971,11.971,0,0,1-4.677,3.541,21.791,21.791,0,0,1-6.313,1.627,60.3,60.3,0,0,1-6.741.387,35.009,35.009,0,0,1-6.857-.64,17.558,17.558,0,0,1-5.533-2.021,10.006,10.006,0,0,1-5.062-9.1,9.07,9.07,0,0,1,1.6-5.419,12.861,12.861,0,0,1,4.132-3.683,20.362,20.362,0,0,1,5.651-2.158A30.765,30.765,0,0,1,1224.923,2907.3Zm-9.6,58.231q2.259,0,5.1.038t5.338.037h2.961q1.325,0,2.767-.07t3.195-.1q1.754-.036,4.092-.176l0-9.847q0-.85-1.091-.851-2.182,0-5.221.034t-6.39.033q-3.741,0-6.624.033t-5.066.034q-.078,2.481-.079,4.746t0,5.03a2.154,2.154,0,0,0,.117.744C1214.5,2965.427,1214.8,2965.533,1215.318,2965.533Zm22.07-46.112a5.184,5.184,0,0,0-.895-3.33,6.63,6.63,0,0,0-2.688-2.126,14.442,14.442,0,0,0-3.9-1.1,26.527,26.527,0,0,0-4.6-.25,23.4,23.4,0,0,0-3.974.459,12.139,12.139,0,0,0-3.313,1.168,6.355,6.355,0,0,0-2.3,2.053,5.8,5.8,0,0,0-.937,3.047,4.887,4.887,0,0,0,.818,3.152,6.108,6.108,0,0,0,2.376,1.949,11.052,11.052,0,0,0,3.312.958,26.838,26.838,0,0,0,3.623.249q2.26,0,4.481-.211a16.084,16.084,0,0,0,3.975-.849,6.787,6.787,0,0,0,2.845-1.876A5.118,5.118,0,0,0,1237.388,2919.421Z" fill="#fff"/>
    </g>
    <circle id="타원_5" data-name="타원 5" cx="13.642" cy="13.642" r="13.642" transform="translate(1096.839 2908.38)" fill="#fff"/>
    <path id="패스_21" data-name="패스 21" d="M1084.418,2929.322h-18.509a7.3,7.3,0,0,1,0-14.6h18.509a3.751,3.751,0,1,0,0-7.5h-18.509a14.8,14.8,0,1,0,0,29.6h18.509a3.751,3.751,0,1,0,0-7.5Z" fill="#fff"/>
    <path id="패스_22" data-name="패스 22" d="M1123.716,2966.024v-17.517a3.751,3.751,0,0,0-3.658-4.585h-65.012a3.75,3.75,0,0,0-3.751,3.751v22.1a3.751,3.751,0,0,0,3.751,3.751h65.012a3.75,3.75,0,0,0,3.658-4.585Zm-7.315,0h-57.792v-14.6H1116.4Z" fill="#fff"/>
  </g>
</svg>
