<svg xmlns="http://www.w3.org/2000/svg" width="123" height="40.721" viewBox="0 0 123 40.721">
  <g id="그룹_38" data-name="그룹 38" transform="translate(-1051.107 -2906.131)">
    <g id="그룹_10" data-name="그룹 10" transform="translate(1103.952 2906.131)">
      <path id="패스_15" data-name="패스 15" d="M1142.855,2922.4a.588.588,0,0,0,.706.771q.612.044,1.153.043h1.06q1.412,0,2.707-.063t2.708-.149c.376-.028.776-.064,1.2-.107s.824-.092,1.2-.149.714-.107,1.013-.149.51-.079.636-.107a2.9,2.9,0,0,1,1.648.043,1.35,1.35,0,0,1,.895.813q.517,1.456-1.272,2.183a2.2,2.2,0,0,1-.636.171q-.495.086-1.154.192t-1.412.213q-.754.107-1.46.149l-2.425.149q-1.012.064-1.789.106c-.518.029-.982.042-1.389.042h-2.66q-.73,0-1.813-.044a5.109,5.109,0,0,1-1.671-.3,2.331,2.331,0,0,1-.965-.662,2.216,2.216,0,0,1-.447-.939,5.251,5.251,0,0,1-.117-1.132q0-.683,0-1.879t0-2.6q0-1.411.025-2.862t.024-2.669q0-1.217,0-2.05t0-1a2.2,2.2,0,0,1,.659-1.409,2.236,2.236,0,0,1,1.7-.64q1.318.043,3.037.065t3.225.022q1.648,0,3.154-.02t2.731-.106a2.611,2.611,0,0,1,1.6.593,1.526,1.526,0,0,1,.659,1.14q0,1.185-1.366,1.521-1.79.086-3.626.127t-3.861.042q-.943,0-1.671.021t-1.907-.022q0,.428-.024,1.091t-.024,1.477q-.048,2.012-.048,4.216T1142.855,2922.4Zm22.5,20.639a2.066,2.066,0,0,1-.66,1.605,2.748,2.748,0,0,1-1.648.534q-2.025.084-3.579.127t-3.037.063q-1.484.021-3.084.021h-6.639a5.73,5.73,0,0,1-3.06-.644,2.7,2.7,0,0,1-.988-2.44q0-1.071.025-2.355t.024-2.7l0-4.708a1.345,1.345,0,0,1,.777-1.369,4.2,4.2,0,0,1,1.719-.342l7.863.045,4.944,0q2.684,0,5.085-.084,2.448-.041,2.353,2.141v4.023q0,1.628-.025,3.339T1165.354,2943.042Zm-17.7-1.034h1.554q.847,0,1.671.022t1.6.022h3.014q.729,0,1.506-.021t1.743-.064q.965-.042,2.472-.084l0-7.062q0-.514-.564-.514l-8.382,0q-1.695,0-2.872.021t-2.26.021q-.048,1.713-.048,3.574t0,3.574Q1147.085,2942.009,1147.65,2942.008Zm13.478-34.238a1.418,1.418,0,0,1,.707-1.262,2.554,2.554,0,0,1,1.648-.364,3.05,3.05,0,0,1,1.341.407,1.217,1.217,0,0,1,.636,1.135v3.039q0,1.155,0,2.718t.047,2.8h2.26c.533,0,1.067-.006,1.6-.021s1.067-.022,1.6-.021a2.124,2.124,0,0,1,1.624.536,1.7,1.7,0,0,1,.494,1.177,1.67,1.67,0,0,1-.566,1.2,2.264,2.264,0,0,1-1.554.6q-1.036.042-1.789.021t-1.7-.022H1165.5q-.048,1.67-.048,3.382t0,3.553a1.568,1.568,0,0,1-.66,1.391,2.394,2.394,0,0,1-1.365.449,2.027,2.027,0,0,1-1.553-.428,1.794,1.794,0,0,1-.612-1.456l.048-3.6q0-1.882,0-3.873t-.046-3.959q0-.812-.023-1.84t-.047-2.076q-.024-1.049-.046-1.969T1161.128,2907.77Z" transform="translate(-1138.569 -2906.131)" fill="#669476"/>
      <path id="패스_16" data-name="패스 16" d="M1229.939,2924.94a2.528,2.528,0,0,1,1.507.407,1.451,1.451,0,0,1,.564,1.263,1.644,1.644,0,0,1-.354,1.177,2.8,2.8,0,0,1-1.154.62,1.731,1.731,0,0,1-.589.086h-5.486q-2.919,0-5.815-.023t-5.768-.023q-2.92,0-5.721.019t-5.58.062c-.188,0-.385.007-.589.021s-.4.022-.588.021h-1.036a2.006,2.006,0,0,1-1.366-.493,1.646,1.646,0,0,1-.564-1.306,1.411,1.411,0,0,1,.565-1.113,2.414,2.414,0,0,1,1.271-.556,5.207,5.207,0,0,1,1.13-.064q.707.023,1.272.022h.612q2.119-.042,4.709-.041h4.708l15.3.006h.918q.494,0,.965-.042.517,0,1.036-.042Zm-3.4,18.79a1.75,1.75,0,0,1-.706,1.5,3.338,3.338,0,0,1-1.7.47q-2.92.127-4.85.169t-3.719.084q-1.79.042-3.814.042l-5.038,0a4.2,4.2,0,0,1-2.754-.665,2.616,2.616,0,0,1-.729-2.034q0-.513,0-1.177t.024-1.69q.023-1.028.024-2.483t0-3.6q0-1.242.778-1.562a4.444,4.444,0,0,1,1.718-.321l8.522,0q2.4,0,5.133-.041t5.132-.041a2.64,2.64,0,0,1,1.53.407,1.638,1.638,0,0,1,.541,1.52v3.681q0,1.5-.025,3.1T1226.542,2943.73Zm-12.512-36.431a25.684,25.684,0,0,1,4.332.28,12.128,12.128,0,0,1,3.743,1.158,7.2,7.2,0,0,1,2.636,2.27,6.37,6.37,0,0,1,1.058,3.617,5.594,5.594,0,0,1-1.06,3.7,7.235,7.235,0,0,1-2.826,2.139,13.169,13.169,0,0,1-3.814.983,36.462,36.462,0,0,1-4.073.234,21.169,21.169,0,0,1-4.143-.386,10.608,10.608,0,0,1-3.343-1.221,6.046,6.046,0,0,1-3.058-5.5,5.481,5.481,0,0,1,.966-3.274,7.769,7.769,0,0,1,2.5-2.225,12.305,12.305,0,0,1,3.414-1.3A18.6,18.6,0,0,1,1214.031,2907.3Zm-5.8,35.183q1.365,0,3.084.023t3.225.022h1.789q.8,0,1.672-.042t1.93-.063q1.059-.022,2.472-.106l0-5.949q0-.514-.659-.514-1.319,0-3.155.021t-3.861.02q-2.26,0-4,.02t-3.061.021q-.047,1.5-.048,2.867t0,3.039a1.3,1.3,0,0,0,.071.449Q1207.757,2942.483,1208.227,2942.482Zm13.335-27.861a3.132,3.132,0,0,0-.541-2.012,4.007,4.007,0,0,0-1.624-1.285,8.739,8.739,0,0,0-2.354-.664,16.039,16.039,0,0,0-2.778-.151,14.1,14.1,0,0,0-2.4.277,7.334,7.334,0,0,0-2,.706,3.84,3.84,0,0,0-1.389,1.24,3.5,3.5,0,0,0-.566,1.841,2.953,2.953,0,0,0,.494,1.9,3.689,3.689,0,0,0,1.436,1.177,6.681,6.681,0,0,0,2,.579,16.214,16.214,0,0,0,2.189.15q1.366,0,2.707-.127a9.72,9.72,0,0,0,2.4-.513,4.1,4.1,0,0,0,1.719-1.133A3.094,3.094,0,0,0,1221.562,2914.621Z" transform="translate(-1161.855 -2906.591)" fill="#669476"/>
    </g>
    <circle id="타원_4" data-name="타원 4" cx="8.243" cy="8.243" r="8.243" transform="translate(1078.738 2907.49)" fill="#eb6b5b"/>
    <path id="패스_17" data-name="패스 17" d="M1071.234,2920.574h-11.183a4.411,4.411,0,1,1,0-8.822h11.183a2.266,2.266,0,1,0,0-4.533h-11.183a8.944,8.944,0,1,0,0,17.887h11.183a2.267,2.267,0,1,0,0-4.533Z" transform="translate(0 -0.431)" fill="#f4a52d"/>
    <path id="패스_18" data-name="패스 18" d="M1095.052,2957.276v-10.584a2.266,2.266,0,0,0-2.21-2.77h-39.28a2.266,2.266,0,0,0-2.266,2.266v13.354a2.266,2.266,0,0,0,2.266,2.267h39.28a2.266,2.266,0,0,0,2.21-2.771Zm-4.42,0h-34.918v-8.821h34.918Z" transform="translate(-0.075 -14.958)" fill="#8dc21f"/>
  </g>
</svg>
